<svg width="51" height="40" viewBox="0 0 51 40" fill="none" xmlns="http://www.w3.org/2000/svg">
<g style="mix-blend-mode:luminosity" clip-path="url(#clip0_467_1083)">
<path d="M25.6406 40C39.4477 40 50.6406 31.0457 50.6406 20C50.6406 8.95431 39.4477 0 25.6406 0C11.8335 0 0.640625 8.95431 0.640625 20C0.640625 31.0457 11.8335 40 25.6406 40Z" fill="#39393C"/>
<path d="M9.8254 22.8504C10.1512 23.24 10.4263 23.6553 10.6464 24.0897C10.8175 24.5711 10.9265 25.0653 10.9718 25.5644C10.9693 26.5176 11.2964 27.4525 11.9167 28.2662C12.6929 28.9517 13.6897 29.4534 14.7982 29.7162C15.3786 29.8868 15.9343 30.107 16.4558 30.3731C16.9346 30.6774 17.3709 31.0222 17.757 31.4017C18.4402 32.1524 19.3669 32.7396 20.437 33.0995C21.5325 33.2912 22.6741 33.2222 23.7213 32.9013C24.3437 32.741 24.9892 32.6452 25.6422 32.6162C26.2951 32.6452 26.9406 32.741 27.5631 32.9013C28.6102 33.2222 29.7518 33.2912 30.8473 33.0995C31.9231 32.7416 32.8554 32.1543 33.5428 31.4017C33.929 31.0222 34.3652 30.6774 34.8441 30.3731C35.3606 30.1078 35.9111 29.8876 36.4861 29.7162C37.595 29.454 38.592 28.9522 39.3675 28.2662C39.9799 27.4718 40.3116 26.5596 40.3281 25.6265C40.3733 25.1273 40.4823 24.633 40.6534 24.1516C40.8736 23.7173 41.1487 23.302 41.4745 22.9123C42.1834 22.1192 42.6019 21.1836 42.6828 20.2106C42.6828 18.4756 41.1336 17.2859 39.2282 15.8731C38.7634 15.5384 38.2987 15.179 37.8184 14.7948C35.7563 13.1527 33.9559 11.3128 32.4584 9.31705C30.7854 7.19782 29.7938 5.9585 25.6422 5.9585C21.4905 5.9585 20.499 7.19782 18.8414 9.34183C17.344 11.3377 15.5436 13.1776 13.4814 14.8196C13.0011 15.2038 12.5209 15.5632 12.0717 15.8978C10.1507 17.2859 8.60156 18.4756 8.60156 20.2106C8.701 21.1634 9.1242 22.0762 9.8254 22.8504Z" fill="white"/>
<path d="M9.8254 24.0894C10.1512 24.479 10.4263 24.8943 10.6464 25.3287C10.8175 25.8101 10.9265 26.3044 10.9718 26.8035C10.9693 27.7566 11.2964 28.6915 11.9167 29.5052C12.6929 30.1907 13.6897 30.6924 14.7982 30.9552C15.3786 31.1258 15.9343 31.346 16.4558 31.6121C16.9346 31.9164 17.3709 32.2613 17.757 32.6407C18.4402 33.3915 19.3669 33.9786 20.437 34.3385C21.5325 34.5302 22.6741 34.4613 23.7213 34.1403C24.3437 33.9799 24.9892 33.8842 25.6422 33.8552C26.2951 33.8842 26.9406 33.9799 27.5631 34.1403C28.6102 34.4613 29.7518 34.5302 30.8473 34.3385C31.9231 33.9806 32.8554 33.3933 33.5428 32.6407C33.929 32.2613 34.3652 31.9164 34.8441 31.6121C35.3606 31.3468 35.9111 31.1266 36.4861 30.9552C37.595 30.693 38.592 30.1912 39.3675 29.5052C39.9799 28.7108 40.3116 27.7986 40.3281 26.8655C40.3733 26.3663 40.4823 25.8722 40.6534 25.3907C40.8736 24.9563 41.1487 24.541 41.4745 24.1513C42.1834 23.3582 42.6019 22.4226 42.6828 21.4497C42.6828 19.7146 41.1336 18.5249 39.2282 17.1121C38.7634 16.7774 38.2987 16.418 37.8184 16.0338C35.7563 14.3917 33.9559 12.5518 32.4584 10.5561C30.7854 8.43682 29.7938 7.19751 25.6422 7.19751C21.4905 7.19751 20.499 8.43682 18.8414 10.5809C17.344 12.5767 15.5436 14.4166 13.4814 16.0586C13.0011 16.4428 12.5209 16.8022 12.0717 17.1369C10.1507 18.5249 8.60156 19.7146 8.60156 21.4497C8.701 22.4024 9.1242 23.3152 9.8254 24.0894Z" fill="#39393C"/>
<path d="M39.8932 26.513C33.6965 22.1755 29.359 12.5088 28.5844 9.41049M25.641 34.4447C23.9369 34.4447 22.2329 35.3122 20.6837 34.9404C19.1346 34.5686 18.2051 33.0814 16.9658 32.3378C15.7265 31.5942 13.5577 31.3463 12.6282 30.355C11.6987 29.3635 12.0085 27.6284 11.3889 26.3891C10.7692 25.1498 9.375 24.0344 9.375 22.6712C9.375 20.8122 11.6987 19.5729 14.0224 17.7139C21.3035 11.7652 19.4445 9.0387 25.641 9.0387C31.8376 9.0387 29.9786 11.8891 37.2596 17.7139C39.5833 19.5729 41.9071 20.8122 41.9071 22.6712C41.9071 24.0344 40.3579 25.1498 39.8932 26.3891C39.4285 27.6284 39.7382 29.2396 38.6538 30.355C37.5695 31.4703 35.7105 31.5942 34.3163 32.3378C32.9221 33.0814 32.1474 34.5686 30.5983 34.9404C29.0491 35.3122 27.3451 34.4447 25.641 34.4447Z" stroke="white" stroke-linecap="round" stroke-linejoin="round"/>
<path d="M34.4723 32.2138C29.8249 26.0172 28.5855 15.2351 27.0364 9.03857M25.6422 34.4446V9.03857M11.5449 26.6369C17.7415 22.2992 21.9242 12.5087 22.6987 9.41037M16.8121 32.2138C21.4595 26.0172 22.6987 15.2351 24.2479 9.03857" stroke="white" stroke-linecap="round" stroke-linejoin="round"/>
</g>
<defs>
<clipPath id="clip0_467_1083">
<rect width="50" height="40" fill="white" transform="translate(0.640625)"/>
</clipPath>
</defs>
</svg>
